<mxfile host="app.diagrams.net" modified="2020-06-24T20:03:55.378Z" agent="5.0 (Windows)" etag="1XADT3t_ulCvwWVz9qav" version="13.3.1" type="github">
  <diagram id="8KN3MF4fHOU6Rn_Hq1I0" name="Page-1">
    <mxGraphModel dx="981" dy="552" grid="1" gridSize="10" guides="1" tooltips="1" connect="1" arrows="1" fold="1" page="1" pageScale="1" pageWidth="850" pageHeight="1100" math="0" shadow="0">
      <root>
        <mxCell id="0" />
        <mxCell id="1" parent="0" />
        <mxCell id="Dj131j_THbikGjiuk33c-1" value="&lt;p style=&quot;margin: 0px ; margin-top: 4px ; text-align: center ; text-decoration: underline&quot;&gt;&lt;b&gt;Print Schedule&lt;/b&gt;&lt;br&gt;&lt;/p&gt;&lt;hr&gt;&lt;p style=&quot;margin: 0px ; margin-left: 8px&quot;&gt;&lt;b&gt;Actors &lt;/b&gt;= Instructor, SQL Database&lt;br&gt;&lt;b&gt;Description &lt;/b&gt;= Prints information about each course in instructor&#39;s&lt;br&gt;semester schdule&lt;br&gt;&lt;/p&gt;&lt;p style=&quot;margin: 0px ; margin-left: 8px&quot;&gt;&lt;b&gt;Data &lt;/b&gt;= CRN, time slot, dept, instructor, year, credits, semester, title&lt;br&gt;&lt;/p&gt;&lt;p style=&quot;margin: 0px ; margin-left: 8px&quot;&gt;&lt;b&gt;Stimulus &lt;/b&gt;= Clicking Print Schedule button and choosing &lt;br&gt;desired semester&lt;br&gt;&lt;/p&gt;&lt;p style=&quot;margin: 0px ; margin-left: 8px&quot;&gt;&lt;b&gt;Response &lt;/b&gt;= A window appears that presents the courses &lt;br&gt;in a neat and readable way&lt;br&gt;&lt;/p&gt;" style="verticalAlign=top;align=left;overflow=fill;fontSize=12;fontFamily=Helvetica;html=1;" vertex="1" parent="1">
          <mxGeometry x="430" y="210" width="370" height="185" as="geometry" />
        </mxCell>
        <mxCell id="Dj131j_THbikGjiuk33c-2" value="&lt;p style=&quot;margin: 0px ; margin-top: 4px ; text-align: center ; text-decoration: underline&quot;&gt;&lt;b&gt;Login&lt;/b&gt;&lt;br&gt;&lt;/p&gt;&lt;hr&gt;&lt;p style=&quot;margin: 0px ; margin-left: 8px&quot;&gt;&lt;b&gt;Actors &lt;/b&gt;= Instructor, SQL Database&lt;br&gt;&lt;b&gt;Description &lt;/b&gt;= Allows instructor to gain access to CURSE using their &lt;br&gt;credentials and utilize other available functions&lt;br&gt;&lt;/p&gt;&lt;p style=&quot;margin: 0px ; margin-left: 8px&quot;&gt;&lt;b&gt;Data &lt;/b&gt;= Username, password&lt;br&gt;&lt;/p&gt;&lt;p style=&quot;margin: 0px ; margin-left: 8px&quot;&gt;&lt;b&gt;Stimulus &lt;/b&gt;= Typing info into text boxes, clicking Login button&lt;br&gt;&lt;/p&gt;&lt;p style=&quot;margin: 0px ; margin-left: 8px&quot;&gt;&lt;b&gt;Response &lt;/b&gt;= User&#39;s credentials are confirmed with &lt;br&gt;database and user is eithergranted or denied access&lt;br&gt;&lt;/p&gt;" style="verticalAlign=top;align=left;overflow=fill;fontSize=12;fontFamily=Helvetica;html=1;" vertex="1" parent="1">
          <mxGeometry x="20" y="400" width="380" height="185" as="geometry" />
        </mxCell>
        <mxCell id="Dj131j_THbikGjiuk33c-3" value="&lt;p style=&quot;margin: 0px ; margin-top: 4px ; text-align: center ; text-decoration: underline&quot;&gt;&lt;b&gt;Logout&lt;/b&gt;&lt;br&gt;&lt;/p&gt;&lt;hr&gt;&lt;p style=&quot;margin: 0px ; margin-left: 8px&quot;&gt;&lt;b&gt;Actors &lt;/b&gt;= Instructor, SQL Database&lt;br&gt;&lt;b&gt;Description &lt;/b&gt;= Securely logs instructor out of system &lt;br&gt;&lt;/p&gt;&lt;p style=&quot;margin: 0px ; margin-left: 8px&quot;&gt;&lt;b&gt;Data &lt;/b&gt;= None&lt;br&gt;&lt;/p&gt;&lt;p style=&quot;margin: 0px ; margin-left: 8px&quot;&gt;&lt;b&gt;Stimulus &lt;/b&gt;= Clicking Logout button&lt;br&gt;&lt;/p&gt;&lt;p style=&quot;margin: 0px ; margin-left: 8px&quot;&gt;&lt;b&gt;Response &lt;/b&gt;= Instructor confirms logout and they&lt;br&gt;are brought back to the login page&lt;/p&gt;" style="verticalAlign=top;align=left;overflow=fill;fontSize=12;fontFamily=Helvetica;html=1;" vertex="1" parent="1">
          <mxGeometry x="425" y="400" width="370" height="185" as="geometry" />
        </mxCell>
        <mxCell id="Dj131j_THbikGjiuk33c-26" value="Instructor" style="shape=umlActor;verticalLabelPosition=bottom;labelBackgroundColor=#ffffff;verticalAlign=top;html=1;outlineConnect=0;" vertex="1" parent="1">
          <mxGeometry x="15" y="120" width="30" height="60" as="geometry" />
        </mxCell>
        <mxCell id="Dj131j_THbikGjiuk33c-27" value="Login" style="ellipse;whiteSpace=wrap;html=1;" vertex="1" parent="1">
          <mxGeometry x="165" width="80" height="40" as="geometry" />
        </mxCell>
        <mxCell id="Dj131j_THbikGjiuk33c-28" value="" style="endArrow=classic;html=1;entryX=0;entryY=0.5;entryDx=0;entryDy=0;" edge="1" parent="1" source="Dj131j_THbikGjiuk33c-26" target="Dj131j_THbikGjiuk33c-27">
          <mxGeometry width="50" height="50" relative="1" as="geometry">
            <mxPoint x="215" y="200" as="sourcePoint" />
            <mxPoint x="265" y="150" as="targetPoint" />
          </mxGeometry>
        </mxCell>
        <mxCell id="Dj131j_THbikGjiuk33c-31" value="Search courses" style="ellipse;whiteSpace=wrap;html=1;" vertex="1" parent="1">
          <mxGeometry x="165" y="110" width="80" height="40" as="geometry" />
        </mxCell>
        <mxCell id="Dj131j_THbikGjiuk33c-32" value="" style="endArrow=classic;html=1;entryX=0;entryY=0.5;entryDx=0;entryDy=0;" edge="1" parent="1" source="Dj131j_THbikGjiuk33c-26" target="Dj131j_THbikGjiuk33c-31">
          <mxGeometry width="50" height="50" relative="1" as="geometry">
            <mxPoint x="105" y="230" as="sourcePoint" />
            <mxPoint x="155" y="180" as="targetPoint" />
          </mxGeometry>
        </mxCell>
        <mxCell id="Dj131j_THbikGjiuk33c-33" value="Logout" style="ellipse;whiteSpace=wrap;html=1;" vertex="1" parent="1">
          <mxGeometry x="165" y="50" width="80" height="40" as="geometry" />
        </mxCell>
        <mxCell id="Dj131j_THbikGjiuk33c-34" value="" style="endArrow=classic;html=1;entryX=0;entryY=0.5;entryDx=0;entryDy=0;" edge="1" parent="1" source="Dj131j_THbikGjiuk33c-26" target="Dj131j_THbikGjiuk33c-33">
          <mxGeometry width="50" height="50" relative="1" as="geometry">
            <mxPoint x="95" y="120" as="sourcePoint" />
            <mxPoint x="145" y="70" as="targetPoint" />
          </mxGeometry>
        </mxCell>
        <mxCell id="Dj131j_THbikGjiuk33c-36" value="Print schedule" style="ellipse;whiteSpace=wrap;html=1;" vertex="1" parent="1">
          <mxGeometry x="165" y="240" width="80" height="40" as="geometry" />
        </mxCell>
        <mxCell id="Dj131j_THbikGjiuk33c-37" value="" style="endArrow=classic;html=1;entryX=0;entryY=0.5;entryDx=0;entryDy=0;" edge="1" parent="1" source="Dj131j_THbikGjiuk33c-26" target="Dj131j_THbikGjiuk33c-49">
          <mxGeometry width="50" height="50" relative="1" as="geometry">
            <mxPoint x="115" y="220" as="sourcePoint" />
            <mxPoint x="165.00000000000205" y="239.9999999999999" as="targetPoint" />
          </mxGeometry>
        </mxCell>
        <mxCell id="Dj131j_THbikGjiuk33c-38" value="" style="endArrow=classic;html=1;entryX=0;entryY=0.5;entryDx=0;entryDy=0;" edge="1" parent="1" source="Dj131j_THbikGjiuk33c-26" target="Dj131j_THbikGjiuk33c-36">
          <mxGeometry width="50" height="50" relative="1" as="geometry">
            <mxPoint x="45" y="220.0011111111113" as="sourcePoint" />
            <mxPoint x="165" y="309" as="targetPoint" />
          </mxGeometry>
        </mxCell>
        <mxCell id="Dj131j_THbikGjiuk33c-39" value="SQL Database" style="shape=umlActor;verticalLabelPosition=bottom;labelBackgroundColor=#ffffff;verticalAlign=top;html=1;" vertex="1" parent="1">
          <mxGeometry x="395" y="120" width="30" height="60" as="geometry" />
        </mxCell>
        <mxCell id="Dj131j_THbikGjiuk33c-41" value="" style="endArrow=classic;html=1;exitX=1;exitY=0.5;exitDx=0;exitDy=0;" edge="1" parent="1" source="Dj131j_THbikGjiuk33c-49" target="Dj131j_THbikGjiuk33c-39">
          <mxGeometry width="50" height="50" relative="1" as="geometry">
            <mxPoint x="244.99999999999795" y="239.9999999999999" as="sourcePoint" />
            <mxPoint x="385" y="260" as="targetPoint" />
          </mxGeometry>
        </mxCell>
        <mxCell id="Dj131j_THbikGjiuk33c-42" value="" style="endArrow=classic;html=1;exitX=1;exitY=0.5;exitDx=0;exitDy=0;" edge="1" parent="1" source="Dj131j_THbikGjiuk33c-31">
          <mxGeometry width="50" height="50" relative="1" as="geometry">
            <mxPoint x="265" y="190" as="sourcePoint" />
            <mxPoint x="375" y="150" as="targetPoint" />
          </mxGeometry>
        </mxCell>
        <mxCell id="Dj131j_THbikGjiuk33c-43" value="" style="endArrow=classic;html=1;exitX=1;exitY=0.5;exitDx=0;exitDy=0;" edge="1" parent="1" source="Dj131j_THbikGjiuk33c-36" target="Dj131j_THbikGjiuk33c-39">
          <mxGeometry width="50" height="50" relative="1" as="geometry">
            <mxPoint x="315" y="340" as="sourcePoint" />
            <mxPoint x="365" y="290" as="targetPoint" />
          </mxGeometry>
        </mxCell>
        <mxCell id="Dj131j_THbikGjiuk33c-44" value="" style="endArrow=classic;html=1;exitX=1;exitY=0.5;exitDx=0;exitDy=0;" edge="1" parent="1" source="Dj131j_THbikGjiuk33c-27" target="Dj131j_THbikGjiuk33c-39">
          <mxGeometry width="50" height="50" relative="1" as="geometry">
            <mxPoint x="325" y="80" as="sourcePoint" />
            <mxPoint x="375" y="30" as="targetPoint" />
          </mxGeometry>
        </mxCell>
        <mxCell id="Dj131j_THbikGjiuk33c-45" value="" style="endArrow=classic;html=1;exitX=1;exitY=0.5;exitDx=0;exitDy=0;" edge="1" parent="1" source="Dj131j_THbikGjiuk33c-33">
          <mxGeometry width="50" height="50" relative="1" as="geometry">
            <mxPoint x="405" y="80" as="sourcePoint" />
            <mxPoint x="375" y="140" as="targetPoint" />
          </mxGeometry>
        </mxCell>
        <mxCell id="Dj131j_THbikGjiuk33c-49" value="Print roster" style="ellipse;whiteSpace=wrap;html=1;" vertex="1" parent="1">
          <mxGeometry x="165" y="170" width="80" height="50" as="geometry" />
        </mxCell>
        <mxCell id="Dj131j_THbikGjiuk33c-50" value="&lt;p style=&quot;margin: 0px ; margin-top: 4px ; text-align: center ; text-decoration: underline&quot;&gt;&lt;b&gt;Print Roster&lt;/b&gt;&lt;br&gt;&lt;/p&gt;&lt;hr&gt;&lt;p style=&quot;margin: 0px ; margin-left: 8px&quot;&gt;&lt;b&gt;Actors &lt;/b&gt;= Instructor, SQL Database&lt;br&gt;&lt;b&gt;Description &lt;/b&gt;= Prints first name, last name and WID# for each&lt;br&gt;student in a class that the instructor teaches&lt;br&gt;&lt;/p&gt;&lt;p style=&quot;margin: 0px ; margin-left: 8px&quot;&gt;&lt;b&gt;Data &lt;/b&gt;= CRN, title, first name, last name, WID#&lt;br&gt;&lt;/p&gt;&lt;p style=&quot;margin: 0px ; margin-left: 8px&quot;&gt;&lt;b&gt;Stimulus &lt;/b&gt;= Clicking Print Roster button and choosing &lt;br&gt;desired course&lt;br&gt;&lt;/p&gt;&lt;p style=&quot;margin: 0px ; margin-left: 8px&quot;&gt;&lt;b&gt;Response &lt;/b&gt;= A window appears that presents the list of student&lt;br&gt;names and WID#s sorted in alphabetical order&lt;br&gt;&lt;/p&gt;" style="verticalAlign=top;align=left;overflow=fill;fontSize=12;fontFamily=Helvetica;html=1;" vertex="1" parent="1">
          <mxGeometry x="25" y="600" width="370" height="185" as="geometry" />
        </mxCell>
        <mxCell id="Dj131j_THbikGjiuk33c-51" value="&lt;p style=&quot;margin: 0px ; margin-top: 4px ; text-align: center ; text-decoration: underline&quot;&gt;&lt;b&gt;Search Courses&lt;/b&gt;&lt;br&gt;&lt;/p&gt;&lt;hr&gt;&lt;p style=&quot;margin: 0px ; margin-left: 8px&quot;&gt;&lt;b&gt;Actors &lt;/b&gt;= Instructor, SQL Database&lt;br&gt;&lt;b&gt;Description &lt;/b&gt;= Shows instructor matching courses when given &lt;br&gt;search parameters such as time slot, department, title, etc.&lt;br&gt;&lt;/p&gt;&lt;p style=&quot;margin: 0px ; margin-left: 8px&quot;&gt;&lt;b&gt;Data &lt;/b&gt;= CRN, time slot, day, instructor, department, semester, year&lt;br&gt;&lt;/p&gt;&lt;p style=&quot;margin: 0px ; margin-left: 8px&quot;&gt;&lt;b&gt;Stimulus &lt;/b&gt;= Clicking Search Courses then typing in preferences&lt;br&gt;&lt;/p&gt;&lt;p style=&quot;margin: 0px ; margin-left: 8px&quot;&gt;&lt;b&gt;Response &lt;/b&gt;= Contacts database and either shows courses that&lt;br&gt;match the criteria or shows that none have been found&lt;br&gt;&lt;/p&gt;" style="verticalAlign=top;align=left;overflow=fill;fontSize=12;fontFamily=Helvetica;html=1;" vertex="1" parent="1">
          <mxGeometry x="425" y="600" width="370" height="185" as="geometry" />
        </mxCell>
      </root>
    </mxGraphModel>
  </diagram>
</mxfile>
